<svg width="65" height="41" viewBox="0 0 65 41" fill="none" xmlns="http://www.w3.org/2000/svg">
<path fill-rule="evenodd" clip-rule="evenodd" d="M7.60626 8.44445C7.31599 8.13489 6.97381 7.87817 6.5951 7.6858C6.24239 7.51304 5.8219 7.42704 5.33442 7.42704C4.85926 7.42704 4.44571 7.51304 4.09299 7.68657C3.73874 7.85934 3.44456 8.09584 3.20736 8.39684C2.96863 8.6963 2.78996 9.04184 2.66828 9.43345C2.54506 9.82352 2.48499 10.2297 2.48499 10.652C2.48499 11.0744 2.55585 11.4736 2.69678 11.8522C2.83771 12.2284 3.03717 12.5586 3.29362 12.8404C3.55006 13.1222 3.85811 13.3426 4.21775 13.5031C4.60055 13.6675 5.01394 13.7491 5.43068 13.7427C5.91817 13.7427 6.33557 13.6567 6.68212 13.4839C7.02867 13.3104 7.34981 13.0577 7.64477 12.7253L8.87695 13.9538C8.4519 14.4367 7.9127 14.8062 7.30822 15.0288C6.70017 15.2481 6.05804 15.3586 5.41143 15.3552C4.70524 15.3552 4.06065 15.24 3.47613 15.0096C2.91164 14.792 2.39753 14.4621 1.96517 14.0398C1.5353 13.6156 1.20063 13.1053 0.98327 12.5425C0.752236 11.9605 0.636719 11.3178 0.636719 10.6136C0.636719 9.90952 0.752236 9.26375 0.98327 8.6748C1.2143 8.08586 1.53775 7.58061 1.95516 7.15829C2.37256 6.73597 2.87313 6.40579 3.45688 6.17005C4.04217 5.93202 4.69291 5.81454 5.41143 5.81454C6.07912 5.81454 6.71755 5.93279 7.32671 6.17005C7.93664 6.40655 8.46648 6.76898 8.91545 7.25427L7.60626 8.44445ZM10.7021 0.612305H12.4349V7.42704H12.4734C12.6913 6.94098 13.0695 6.54707 13.6085 6.24684C14.1476 5.94584 14.7699 5.79534 15.4753 5.79534C15.9119 5.79534 16.3324 5.86214 16.7367 5.99729C17.1411 6.13166 17.4938 6.33898 17.7957 6.62079C18.0975 6.90259 18.3378 7.26348 18.5172 7.70577C18.6975 8.14729 18.7868 8.66866 18.7868 9.26989V15.1248H17.054V9.7498C17.054 9.32748 16.9963 8.96659 16.8808 8.66559C16.7652 8.36459 16.6112 8.12041 16.4187 7.93613C16.2307 7.75316 16.0034 7.61529 15.7541 7.533C15.5027 7.44889 15.2391 7.4066 14.9739 7.40784C14.6151 7.40784 14.2808 7.46543 13.9728 7.58061C13.6648 7.69579 13.3952 7.87777 13.1642 8.12732C12.9331 8.37764 12.7537 8.694 12.6251 9.07793C12.4973 9.46186 12.4326 9.91643 12.4326 10.4409V15.1248H10.6998V0.612305H10.7021ZM21.7872 7.13909C22.2763 6.69037 22.8531 6.34715 23.4814 6.13089C24.0996 5.91166 24.7506 5.79821 25.4067 5.79534C26.0736 5.79534 26.6466 5.87827 27.1287 6.04489C27.61 6.21152 28.0051 6.43497 28.3131 6.71677C28.6212 6.99857 28.8491 7.32107 28.9962 7.6858C29.1448 8.0513 29.2195 8.43063 29.2195 8.82838V13.4739C29.2195 13.7941 29.2249 14.0882 29.238 14.3569C29.2511 14.6257 29.2704 14.8814 29.2958 15.1248H27.7555C27.717 14.6641 27.697 14.2034 27.697 13.7427H27.6585C27.2735 14.3316 26.8175 14.747 26.2916 14.9904C25.7648 15.2338 25.1549 15.3552 24.4618 15.3552C24.0382 15.3552 23.6339 15.2976 23.2488 15.1824C22.8638 15.0672 22.5249 14.8944 22.2369 14.6641C21.9482 14.4338 21.7148 14.1421 21.5538 13.8102C21.3859 13.4708 21.3028 13.0769 21.3028 12.6293C21.3028 12.0403 21.4337 11.5481 21.6971 11.1511C21.9604 10.7542 22.3208 10.4317 22.7752 10.1821C23.2311 9.93179 23.764 9.75211 24.3732 9.64461C24.9839 9.53557 25.6362 9.48105 26.3293 9.48105H27.6V9.09713C27.5968 8.60569 27.4034 8.13448 27.0601 7.78179C26.8687 7.58944 26.6388 7.43929 26.3855 7.34104C26.116 7.232 25.7948 7.17748 25.4229 7.17748C25.0894 7.17748 24.7968 7.20973 24.5465 7.27346C24.2962 7.3372 24.069 7.41705 23.8634 7.5138C23.657 7.60979 23.4706 7.72113 23.3043 7.84936C23.1372 7.97759 22.977 8.09891 22.823 8.21409L21.7833 7.13909H21.7872ZM26.6774 10.748C26.2661 10.748 25.8457 10.7711 25.4144 10.8148C25.0141 10.8535 24.6199 10.9406 24.2407 11.0744C23.9148 11.1857 23.6185 11.3695 23.3744 11.6119C23.151 11.8422 23.0386 12.1363 23.0386 12.4949C23.0386 13.0193 23.2157 13.3971 23.5677 13.6275C23.9219 13.8578 24.3994 13.973 25.0032 13.973C25.4783 13.973 25.8826 13.8932 26.2161 13.7327C26.5488 13.573 26.8183 13.3641 27.0247 13.1092C27.2296 12.8535 27.3767 12.5686 27.4668 12.2546C27.5552 11.9522 27.6005 11.6389 27.6015 11.3239V10.748H26.6774ZM32.0821 6.0257H33.8148V7.42704H33.8533C34.072 6.94098 34.4502 6.54707 34.9892 6.24684C35.5283 5.94584 36.1521 5.79534 36.8568 5.79534C37.2934 5.79534 37.7139 5.86214 38.1182 5.99729C38.5225 6.13166 38.8752 6.33898 39.1771 6.62079C39.4798 6.90259 39.7201 7.26348 39.8995 7.70577C40.0797 8.14729 40.169 8.66866 40.169 9.26989V15.1248H38.4363V9.7498C38.4363 9.32748 38.3785 8.96659 38.263 8.66559C38.1475 8.36459 37.9935 8.12041 37.8009 7.93613C37.6133 7.75317 37.3862 7.6153 37.1371 7.533C36.886 7.44883 36.6227 7.40655 36.3577 7.40784C35.9989 7.40784 35.6646 7.46543 35.3566 7.58061C35.0485 7.69579 34.779 7.87777 34.548 8.12732C34.3169 8.37764 34.1375 8.694 34.0089 9.07793C33.881 9.46186 33.8164 9.91643 33.8164 10.4409V15.1248H32.0836V6.0257H32.0821ZM52.2745 15.048C52.2745 15.7391 52.1559 16.3687 51.9179 16.9393C51.6881 17.4968 51.3439 18.0003 50.9075 18.4174C50.4709 18.832 49.9449 19.1561 49.3288 19.3864C48.7127 19.6168 48.0319 19.7319 47.288 19.7319C46.4147 19.7319 45.6168 19.6106 44.8906 19.3672C44.1667 19.1238 43.4759 18.7015 42.8213 18.1003L43.9957 16.6413C44.4447 17.1274 44.9322 17.4952 45.459 17.7455C45.9849 17.9951 46.5818 18.1194 47.2495 18.1194C47.891 18.1194 48.4239 18.0273 48.8475 17.8415C49.271 17.6557 49.6076 17.4153 49.8578 17.1212C50.1081 16.8271 50.2845 16.4916 50.3877 16.113C50.4901 15.7368 50.5417 15.3552 50.5417 14.9712V13.6275H50.4839C50.1673 14.1628 49.6934 14.5882 49.1262 14.8461C48.5625 15.1072 47.9481 15.2417 47.3265 15.24C46.6588 15.24 46.0404 15.1217 45.4682 14.8852C44.9166 14.6605 44.4159 14.3275 43.9957 13.9062C43.5796 13.4821 43.2524 12.9796 43.0331 12.4281C42.7983 11.8387 42.6806 11.2094 42.6865 10.5753C42.6865 9.90952 42.7944 9.28525 43.0138 8.70321C43.2213 8.13838 43.5385 7.61991 43.9472 7.17748C44.3572 6.73885 44.8559 6.39206 45.4104 6.16007C45.9819 5.91666 46.6195 5.79534 47.3265 5.79534C47.9426 5.79534 48.5433 5.92972 49.1262 6.19847C49.7115 6.46722 50.169 6.845 50.5032 7.33105H50.5417V6.0257H52.2745V15.048ZM47.5383 7.40784C47.0762 7.40784 46.6588 7.4877 46.2868 7.64818C45.9141 7.80789 45.5999 8.02443 45.3434 8.30086C45.0862 8.57575 44.8875 8.90746 44.7466 9.29907C44.6018 9.70887 44.5301 10.1408 44.5348 10.5753C44.5348 11.4967 44.8044 12.2354 45.3434 12.7928C45.8825 13.3495 46.6141 13.6275 47.5383 13.6275C48.4624 13.6275 49.194 13.3495 49.7331 12.7921C50.2722 12.2354 50.5417 11.4967 50.5417 10.5753C50.5417 10.1145 50.4709 9.68914 50.3299 9.29907C50.2012 8.92931 49.9981 8.58964 49.7331 8.30086C49.4682 8.01952 49.1467 7.79711 48.7897 7.64818C48.417 7.48693 48.0003 7.40784 47.5383 7.40784ZM56.544 11.2087C56.544 11.6057 56.631 11.9666 56.8043 12.2929C56.9776 12.6201 57.2047 12.898 57.4874 13.1284C57.77 13.3587 58.0973 13.5376 58.4693 13.6659C58.842 13.7941 59.2271 13.8578 59.6244 13.8578C60.1635 13.8578 60.6333 13.7334 61.0299 13.4831C61.4476 13.216 61.8184 12.8821 62.1273 12.4949L63.4365 13.4931C62.4739 14.7347 61.1262 15.3552 59.3934 15.3552C58.6749 15.3552 58.0226 15.2338 57.4396 14.9904C56.879 14.7637 56.3735 14.4199 55.9572 13.9822C55.5467 13.5445 55.229 13.0287 55.023 12.4657C54.8009 11.8603 54.6901 11.2199 54.6957 10.5753C54.6957 9.89723 54.8143 9.26682 55.0523 8.68479C55.2776 8.1202 55.6111 7.60483 56.0342 7.1675C56.4577 6.73428 56.9653 6.39152 57.5259 6.16007C58.1237 5.91286 58.7655 5.78879 59.4127 5.79534C60.2213 5.79534 60.9051 5.93586 61.4635 6.21766C62.0218 6.49947 62.48 6.86727 62.8397 7.32184C63.1993 7.77488 63.4588 8.2878 63.6198 8.85755C63.78 9.42577 63.8601 10.0055 63.8601 10.5944V11.2087H56.544ZM62.0118 9.82659C62.0034 9.46761 61.9419 9.11184 61.8293 8.77079C61.7263 8.46092 61.5589 8.17622 61.3379 7.93536C61.1099 7.69182 60.8306 7.50169 60.5201 7.37866C60.1928 7.24429 59.8116 7.17748 59.3742 7.17748C58.8152 7.17405 58.2677 7.33522 57.8003 7.64079C57.3328 7.94636 56.9662 8.38273 56.7465 8.89518C56.6161 9.18866 56.5472 9.50561 56.544 9.82659H62.0118Z" fill="white"/>
<path fill-rule="evenodd" clip-rule="evenodd" d="M30.0949 40.1386C28.7642 40.1386 27.5397 39.9051 26.423 39.4383C25.3048 38.9714 24.3476 38.3287 23.5505 37.5094C22.7431 36.6738 22.1074 35.6889 21.6791 34.61C21.2263 33.4966 21.0014 32.2911 21.0014 30.998C21.0014 29.7042 21.2263 28.5002 21.6791 27.386C22.1296 26.2726 22.7542 25.3051 23.5505 24.4866C24.3476 23.6673 25.3048 23.0246 26.423 22.5577C27.5397 22.0909 28.7642 21.8574 30.0942 21.8574C31.4249 21.8574 32.6486 22.0909 33.7661 22.5577C34.8827 23.0246 35.84 23.6673 36.6371 24.4866C37.4334 25.3059 38.0579 26.2718 38.51 27.386C38.9613 28.4994 39.1877 29.7049 39.1877 30.998C39.1877 32.2918 38.9613 33.4958 38.51 34.61C38.0579 35.7234 37.4334 36.6909 36.6371 37.5094C35.84 38.3287 34.8827 38.9714 33.7661 39.4383C32.6494 39.9051 31.4249 40.1386 30.0942 40.1386H30.0949ZM30.0949 37.9271C31.0961 37.9271 32.0002 37.7429 32.8057 37.3743C33.5884 37.0215 34.2922 36.516 34.8758 35.8877C35.4603 35.2492 35.9125 34.5018 36.2066 33.6886C36.5185 32.8439 36.6748 31.9478 36.6748 30.998C36.6748 30.0482 36.5192 29.1513 36.2073 28.3074C35.9133 27.4942 35.4611 26.7468 34.8766 26.1083C34.2929 25.48 33.5891 24.9746 32.8065 24.6217C32.001 24.2531 31.0969 24.0689 30.0957 24.0689C29.093 24.0689 28.1897 24.2531 27.3849 24.6217C26.6019 24.9739 25.898 25.4794 25.3148 26.1083C24.7293 26.7463 24.2765 27.4938 23.9825 28.3074C23.6706 29.1521 23.5151 30.0482 23.5151 30.998C23.5151 31.9478 23.6706 32.8447 23.9833 33.6886C24.2773 34.5022 24.7301 35.2497 25.3156 35.8877C25.8984 36.5166 26.6021 37.0222 27.3849 37.3743C28.1897 37.7429 29.093 37.9271 30.0957 37.9271H30.0949ZM2.0127 22.2997H5.1178L14.7288 36.6003H14.7781V22.2997H17.1439V39.6963H14.1374L4.42778 25.3957H4.37849V39.6963H2.0127V22.2997ZM40.8273 22.2997H43.2916L47.136 36.2071H47.1853L51.3001 22.2997H54.0109L58.1264 36.2071H58.1756L62.0208 22.2997H64.4852L59.4078 39.6963H56.9203L52.6809 25.494H52.6316L48.4183 39.6963H45.9285" fill="#3BEE81"/>
</svg>
