<svg width="266" height="200" viewBox="0 0 266 200" fill="none" xmlns="http://www.w3.org/2000/svg">
<path opacity="0.16" d="M126.767 16.4287H224.375C224.375 29.3443 238.071 43.0191 250.571 43.0191V75.644C250.571 99.088 243.614 121.662 230.451 140.926C217.288 160.19 198.897 174.714 177.265 182.928L175.571 183.572L173.878 182.928C152.246 174.714 133.855 160.19 120.692 140.926C107.529 121.662 100.571 99.088 100.571 75.644V43.0191C111.935 43.0191 126.767 30.104 126.767 16.4287Z" fill="#FF9148"/>
<path d="M143.081 97.5276L141.639 98.9507L143.081 100.374L167.638 124.623L169.043 126.011L170.448 124.623L223.491 72.2439L224.932 70.8208L223.491 69.3977L214.154 60.177L212.748 58.7893L211.343 60.177L169.043 101.948L155.229 88.3068L153.823 86.9191L152.418 88.3068L143.081 97.5276Z" stroke="#FF9148" stroke-width="4"/>
<path d="M174.248 197.36L174.248 197.36C148.674 187.677 126.932 170.557 111.366 147.841C95.7989 125.124 87.5713 98.5068 87.5713 70.8559V33.8176H91.3709C106.633 33.8176 119.006 21.2598 119.006 5.87031V2H232.136V5.87031C232.136 21.259 244.509 33.8176 259.772 33.8176H263.571V70.8559C263.571 98.5068 255.344 125.124 239.777 147.841C224.211 170.557 202.469 187.677 176.895 197.36L175.571 197.861L174.248 197.36Z" stroke="#FF9148" stroke-width="4"/>
<path d="M87.3571 47.1431H10C5.58172 47.1431 2 50.7248 2 55.1431V168.387C2 172.806 5.58172 176.387 10 176.387H137" stroke="white" stroke-width="4"/>
<path d="M2.28418 74.4409L86.9999 74.4409" stroke="white" stroke-width="4"/>
<circle cx="15.0809" cy="60.7918" r="2.84356" fill="white"/>
<circle cx="28.1609" cy="60.7918" r="2.84356" fill="white"/>
<circle cx="41.241" cy="60.7918" r="2.84356" fill="white"/>
</svg>
